<?xml version="1.0" encoding="utf-8"?>
<!-- Generator: Adobe Illustrator 24.0.0, SVG Export Plug-In . SVG Version: 6.00 Build 0)  -->
<svg version="1.1" id="Ebene_1" xmlns="http://www.w3.org/2000/svg" xmlns:xlink="http://www.w3.org/1999/xlink" x="0px" y="0px"
	 viewBox="0 0 738.599 122.496" style="enable-background:new 0 0 738.599 122.496;" xml:space="preserve">
<style type="text/css">
	.st0{fill:#3CF8BB;}
	.st1{fill:#D9D9D9;}
	.st2{fill:#B1B1B1;}
	.st3{fill:#003AF0;}
	.st4{fill:#7EB931;}
	.st5{fill:#466B1B;}
	.st6{fill:#FFFFFF;}
	.st7{fill:#FFBA2E;}
	.st8{fill:#0151E4;}
	.st9{opacity:0.18;}
	.st10{fill:#FF914A;}
	.st11{fill:#FF972E;}
	.st12{fill:#FF0077;}
	.st13{fill:#F5F5F5;}
	.st14{fill:#305EF0;}
	.st15{fill:#95F8D8;}
</style>
<g>
	<path class="st6" d="M203.864,36.276c-0.66-1.33-1.839-2.26-3.515-2.79c-1.687-0.53-4.25-0.8-7.712-0.8
		c-6.468,0-9.972,2.488-10.502,7.452c-0.616-0.887-1.417-1.795-2.39-2.726c-0.974-0.93-2.704-1.925-5.181-2.996
		c-2.488-1.06-5.235-1.59-8.242-1.59c-7.885,0-15.131,3.472-21.729,10.427c-6.598,6.965-9.907,15.066-9.907,24.325
		s3.277,17.392,9.842,24.39c6.554,6.998,13.66,10.502,21.329,10.502c7.658,0,13.13-2.347,16.418-7.052
		c0.26,2.315,1.211,4.056,2.855,5.256c1.633,1.19,4.867,1.795,9.702,1.795c4.824,0,7.863-1.157,9.096-3.461
		c0.627-1.33,1.006-2.498,1.136-3.515c0.13-1.027,0.195-2.552,0.195-4.586V44.388c0-2.044-0.065-3.569-0.195-4.586
		C204.934,38.786,204.534,37.607,203.864,36.276z M177.949,75.614c-2.174,2.401-4.9,3.591-8.177,3.591
		c-3.277,0-6.068-1.168-8.372-3.515s-3.45-4.986-3.45-7.906c0-2.931,1.082-5.635,3.255-8.112c2.174-2.477,5.008-3.721,8.501-3.721
		c3.504,0,6.295,1.244,8.371,3.721c2.088,2.477,3.126,5.159,3.126,8.036C181.204,70.595,180.123,73.223,177.949,75.614z
		 M236.355,40.797c0.086,0.887,0.141,2.174,0.141,3.85v46.519c0,2.044-0.065,3.569-0.206,4.586c-0.13,1.017-0.552,2.196-1.255,3.526
		c-1.157,2.304-4.575,3.45-10.243,3.45c-5.581,0-8.988-1.19-10.232-3.591c-0.616-1.32-0.995-2.477-1.125-3.45
		c-0.141-0.973-0.206-2.52-0.206-4.651V44.388c0-2.044,0.065-3.569,0.206-4.586c0.13-1.017,0.508-2.196,1.125-3.526
		c1.244-2.304,4.694-3.45,10.372-3.45c4.251,0,7.258,0.746,9.031,2.26C235.468,36.32,236.268,38.234,236.355,40.797z M236.29,7.106
		c0.141,1.017,0.206,2.553,0.206,4.586c0,2.044-0.065,3.569-0.206,4.586c-0.13,1.017-0.53,2.174-1.19,3.45
		c-0.671,1.287-1.839,2.196-3.526,2.726c-1.688,0.53-3.916,0.8-6.717,0.8c-2.791,0-5.029-0.27-6.706-0.8
		c-1.687-0.53-2.855-1.46-3.526-2.79c-0.66-1.33-1.06-2.498-1.19-3.515c-0.141-1.017-0.206-2.552-0.206-4.586
		c0-2.044,0.065-3.569,0.206-4.586c0.13-1.017,0.508-2.152,1.125-3.396C215.805,1.19,219.255,0,224.933,0
		c5.581,0,8.945,1.19,10.102,3.58C235.738,4.91,236.16,6.089,236.29,7.106z M313.115,7.106c-0.13-1.017-0.53-2.196-1.201-3.526
		c-0.66-1.32-1.839-2.25-3.515-2.79C306.712,0.26,304.473,0,301.682,0s-5.029,0.26-6.706,0.79c-1.687,0.541-2.855,1.449-3.526,2.726
		c-0.66,1.287-1.06,2.444-1.201,3.461c-0.13,1.017-0.195,2.542-0.195,4.586v27.905c-3.634-4.424-8.729-6.641-15.283-6.641
		c-7.885,0-15.131,3.494-21.729,10.502c-6.608,6.998-9.907,15.121-9.907,24.379s3.277,17.37,9.842,24.325
		c6.554,6.955,13.823,10.437,21.794,10.437c6.641,0,11.833-2.131,15.553-6.381c0.703,4.337,4.132,6.511,10.297,6.511
		c6.154,0,9.896-1.201,11.227-3.591c0.714-1.233,1.135-2.369,1.265-3.385c0.13-1.017,0.195-2.553,0.195-4.586V11.692
		C313.309,9.659,313.245,8.123,313.115,7.106z M286.4,75.754c-2.174,2.39-4.9,3.591-8.177,3.591c-3.277,0-6.068-1.201-8.372-3.591
		c-2.304-2.39-3.45-5.051-3.45-7.971c0-2.931,1.06-5.613,3.191-8.047c2.12-2.434,4.954-3.656,8.501-3.656s6.36,1.244,8.436,3.721
		c2.087,2.488,3.126,5.17,3.126,8.047S288.574,73.364,286.4,75.754z M121.7,49.598c0.53,1.33,0.79,3.072,0.79,5.246v5.151
		c0,0.464-0.06,0.831-0.084,1.256c0.024,0.425,0.084,0.792,0.084,1.256v5.151c0,2.174-0.26,3.915-0.79,5.246
		c-0.541,1.33-1.471,2.26-2.791,2.79c-1.687,0.714-4.348,1.071-7.982,1.071H78.188l31.029-31.028h1.85
		C117.092,45.737,120.629,47.024,121.7,49.598z M75.688,3.586c0.714,1.687,1.071,4.348,1.071,7.982v14.563l-15.551,15.55
		l-9.856-9.857c-2.127-2.128-3.921-3.498-5.62-4.544V11.428c0-6.024,1.287-9.561,3.861-10.632c1.33-0.53,3.072-0.79,5.246-0.79
		h5.151c0.464,0,0.831,0.06,1.256,0.084c0.425-0.024,0.792-0.084,1.256-0.084h5.151c2.174,0,3.915,0.26,5.246,0.79
		C74.228,1.337,75.158,2.267,75.688,3.586z M25.229,57.766l18.999,18.999H11.432c-6.024,0-9.572-1.287-10.632-3.861
		C0.27,71.573,0,69.832,0,67.658c0-0.026,0.005-0.044,0.005-0.069C0.005,67.578,0,67.576,0,67.565v-5.172c0,0,0.01-0.035,0.01-0.039
		c0.002-0.279,0.095-0.412,0.105-0.677C0.072,61.125,0,60.617,0,59.995c0-0.026,0.005-0.044,0.005-0.069
		C0.005,59.915,0,59.913,0,59.902V54.73c0,0,0.01-0.035,0.01-0.039c0.013-2.096,0.274-3.797,0.79-5.093
		c0.53-1.33,1.46-2.26,2.79-2.79c1.774-0.714,4.467-1.071,8.101-1.071h6.732c0.062,0.838,0.187,1.689,0.462,2.559
		c0.665,2.18,1.529,3.96,2.623,5.386C22.265,54.685,23.458,55.996,25.229,57.766z M74.176,80.777l2.582-2.582v32.869
		c0,6.024-1.287,9.572-3.861,10.632c-1.33,0.53-3.072,0.8-5.246,0.8c-0.026,0-0.044-0.005-0.069-0.005
		c-0.012,0-0.013,0.005-0.024,0.005h-5.172c0,0-0.035-0.009-0.038-0.01c-0.279-0.002-0.413-0.095-0.677-0.105
		c-0.552,0.044-1.06,0.116-1.682,0.116c-0.026,0-0.044-0.005-0.069-0.005c-0.011,0-0.013,0.005-0.024,0.005h-5.172
		c0,0-0.035-0.009-0.039-0.01c-2.096-0.014-3.797-0.274-5.093-0.79c-1.33-0.53-2.26-1.46-2.791-2.791
		c-0.714-1.774-1.071-4.467-1.071-8.101V78.268l2.419,2.419c2.697,2.697,4.879,4.46,6.867,5.548
		c1.922,0.932,3.705,1.324,5.614,1.324h0.179l0.293-0.011l0.512,0.015c1.126,0,2.139-0.147,3.097-0.449
		c2.175-0.663,3.957-1.526,5.384-2.621C71.106,83.73,72.413,82.541,74.176,80.777z"/>
	<path class="st0" d="M374.711,42.387c0,2.845-0.844,5.938-2.52,9.312c-1.687,3.364-4.121,5.051-7.312,5.051
		c-1.601,0-3.126-0.357-4.586-1.071c-1.46-0.703-3.396-1.06-5.787-1.06c-2.39,0-4.629,0.844-6.706,2.52
		c-2.088,1.687-3.126,3.731-3.126,6.122v27.905c0,2.044-0.065,3.569-0.195,4.586c-0.141,1.017-0.562,2.196-1.265,3.526
		c-1.331,2.304-4.792,3.45-10.373,3.45c-4.25,0-7.312-0.746-9.172-2.26c-1.417-1.233-2.206-3.137-2.39-5.711c0-0.887,0-2.174,0-3.85
		V44.258c0-2.044,0.065-3.569,0.206-4.586c0.13-1.017,0.508-2.152,1.125-3.396c1.244-2.39,4.694-3.591,10.372-3.591
		c5.311,0,8.631,1.027,9.961,3.061c0.973,1.417,1.46,2.877,1.46,4.391c0.443-0.627,1.092-1.374,1.936-2.26
		c0.833-0.887,2.628-2.087,5.375-3.591c2.747-1.503,5.159-2.26,7.247-2.26c2.077,0,3.829,0.108,5.246,0.335
		c1.417,0.216,2.974,0.595,4.651,1.125c1.687,0.53,3.083,1.438,4.186,2.726C374.159,37.499,374.711,39.554,374.711,42.387z
		 M431.191,75.354h-31.496c0,2.477,1.46,4.564,4.391,6.241c2.92,1.687,5.84,2.531,8.771,2.531c5.138,0,9.161-0.53,12.092-1.601
		l1.46-0.53c2.131-0.973,3.894-1.46,5.322-1.46c2.834,0,5.267,1.99,7.301,5.981c1.157,2.39,1.73,4.435,1.73,6.111
		c0,7.896-9.431,11.833-28.305,11.833c-6.565,0-12.384-1.125-17.478-3.385s-9.064-5.256-11.897-8.977
		c-5.581-7.171-8.372-15.196-8.372-24.054c0-11.162,3.613-20.085,10.827-26.78c7.225-6.684,16.235-10.037,27.051-10.037
		c12.319,0,21.35,4.348,27.115,13.033c3.007,4.608,4.521,9.626,4.521,15.077s-1.352,9.485-4.056,12.092
		C437.464,74.045,434.468,75.354,431.191,75.354z M421.23,59c0-2.033-0.779-3.667-2.325-4.91c-1.557-1.244-3.775-1.86-6.652-1.86
		c-2.877,0-5.732,1.168-8.566,3.515c-2.844,2.358-4.25,4.856-4.25,7.517h16.743C419.543,63.262,421.23,61.845,421.23,59z
		 M527.69,32.556c-3.191,0-6.295,0.865-9.302,2.596c-3.018,1.731-5.213,3.32-6.587,4.781c-1.374,1.46-2.542,2.855-3.515,4.186
		c-4.435-7.701-11.173-11.562-20.204-11.562c-5.851,0-10.859,3.147-15.023,9.442c0-3.018-0.746-5.321-2.261-6.911
		c-1.503-1.601-4.737-2.401-9.702-2.401c-4.954,0-8.101,1.201-9.431,3.591c-0.714,1.244-1.136,2.38-1.265,3.396
		c-0.13,1.017-0.195,2.542-0.195,4.586v46.779c0,2.131,0.065,3.677,0.195,4.651c0.13,0.973,0.508,2.131,1.135,3.45
		c1.233,2.401,4.651,3.591,10.232,3.591c5.581,0,9.031-1.146,10.362-3.45c0.714-1.33,1.135-2.509,1.265-3.526
		c0.13-1.017,0.195-2.542,0.195-4.586V67.642c0-7.701,2.661-11.562,7.982-11.562c5.494,0,8.242,3.861,8.242,11.562v23.265
		c0,2.033,0.065,3.558,0.195,4.586c0.13,1.017,0.508,2.185,1.125,3.515c1.244,2.488,4.662,3.721,10.242,3.721
		c5.668,0,9.118-1.19,10.362-3.591c0.714-1.32,1.136-2.477,1.266-3.45c0.13-0.973,0.195-2.52,0.195-4.651V67.783
		c0-3.732,0.552-6.609,1.666-8.642c1.103-2.044,3.212-3.061,6.316-3.061c5.484,0,8.231,3.861,8.231,11.562v23.265
		c0,2.033,0.076,3.558,0.206,4.586c0.13,1.017,0.508,2.185,1.125,3.515c1.244,2.488,4.651,3.721,10.232,3.721
		c5.678,0,9.085-1.19,10.243-3.591c0.703-1.32,1.125-2.498,1.254-3.515c0.141-1.017,0.206-2.553,0.206-4.586V67.783
		c0-12.59-2.39-21.599-7.182-27.05C540.712,35.281,534.775,32.556,527.69,32.556z M582.44,3.58C581.283,1.19,577.919,0,572.338,0
		c-5.667,0-9.129,1.19-10.362,3.58c-0.627,1.244-1.006,2.38-1.136,3.396s-0.195,2.542-0.195,4.586c0,2.033,0.065,3.569,0.195,4.586
		c0.13,1.017,0.53,2.185,1.201,3.515c0.66,1.33,1.839,2.26,3.515,2.79c1.687,0.53,3.926,0.8,6.717,0.8s5.029-0.27,6.717-0.8
		c1.677-0.53,2.855-1.439,3.515-2.726c0.671-1.276,1.06-2.434,1.201-3.45c0.13-1.017,0.195-2.542,0.195-4.586
		c0-2.033-0.065-3.569-0.195-4.586C583.565,6.089,583.143,4.91,582.44,3.58z M581.38,35.087c-1.774-1.514-4.792-2.26-9.042-2.26
		c-5.667,0-9.129,1.146-10.362,3.45c-0.627,1.33-1.006,2.509-1.136,3.526c-0.13,1.017-0.195,2.542-0.195,4.586v46.649
		c0,2.131,0.065,3.677,0.195,4.651s0.508,2.131,1.136,3.45c1.233,2.401,4.651,3.591,10.232,3.591c5.667,0,9.074-1.146,10.232-3.45
		c0.703-1.33,1.125-2.509,1.266-3.526c0.13-1.017,0.195-2.542,0.195-4.586V44.648c0-1.676-0.043-2.964-0.13-3.85
		C583.684,38.234,582.883,36.32,581.38,35.087z M630.819,32.685c-3.634,0-6.955,1.027-9.961,3.061
		c-1.157,0.714-2.358,1.644-3.591,2.79c-1.244,1.157-2.044,2.044-2.39,2.661c0-2.131-0.443-3.948-1.33-5.451
		c-1.244-2.033-4.564-3.061-9.972-3.061c-5.581,0-8.988,1.114-10.232,3.331c-0.714,1.233-1.136,2.369-1.265,3.385
		c-0.13,1.017-0.195,2.509-0.195,4.456v47.049c0,2.033,0.065,3.558,0.195,4.586c0.13,1.017,0.508,2.185,1.135,3.515
		c1.233,2.39,4.651,3.591,10.232,3.591c5.667,0,9.075-1.201,10.232-3.591c0.703-1.233,1.125-2.369,1.265-3.385
		c0.13-1.017,0.195-2.553,0.195-4.586V67.512c0-3.461,1.082-6.252,3.256-8.371c2.174-2.131,5.008-3.191,8.512-3.191
		c3.493,0,6.284,1.017,8.371,3.05c2.077,2.044,3.126,4.878,3.126,8.512v23.395c0,3.007,0.26,5.267,0.79,6.771
		c0.973,3.277,4.607,4.921,10.902,4.921c5.667,0,9.128-1.201,10.362-3.591c0.627-1.233,1.006-2.369,1.135-3.385
		c0.13-1.017,0.195-2.553,0.195-4.586V67.642c0-9.745-2.942-18.008-8.837-24.779C647.054,36.082,639.677,32.685,630.819,32.685z
		 M738.599,11.692v79.345c0,2.033-0.065,3.569-0.195,4.586c-0.13,1.017-0.552,2.152-1.265,3.385
		c-1.33,2.39-5.073,3.591-11.227,3.591c-6.165,0-9.594-2.174-10.296-6.511c-3.721,4.251-8.912,6.381-15.553,6.381
		c-7.971,0-15.24-3.483-21.794-10.437c-6.565-6.955-9.843-15.066-9.843-24.325s3.299-17.381,9.907-24.379
		c6.598-7.009,13.844-10.502,21.729-10.502c6.554,0,11.648,2.217,15.283,6.641V11.562c0-2.044,0.065-3.569,0.195-4.586
		c0.141-1.017,0.541-2.174,1.201-3.461c0.671-1.276,1.839-2.185,3.526-2.726c1.677-0.53,3.915-0.79,6.706-0.79
		s5.029,0.26,6.717,0.79c1.676,0.541,2.855,1.471,3.515,2.79c0.67,1.33,1.071,2.509,1.2,3.526
		C738.534,8.123,738.599,9.659,738.599,11.692z M714.945,67.848c0-2.877-1.038-5.559-3.126-8.047
		c-2.077-2.477-4.889-3.721-8.437-3.721s-6.381,1.222-8.501,3.656c-2.131,2.434-3.191,5.116-3.191,8.047
		c0,2.92,1.146,5.581,3.45,7.971s5.094,3.591,8.372,3.591c3.277,0,6.003-1.201,8.177-3.591
		C713.863,73.364,714.945,70.725,714.945,67.848z M105.11,10.395c-0.473,0-0.924,0.068-1.356,0.204
		c-1.441,0.439-2.574,0.975-3.384,1.602c-0.814,0.623-1.946,1.664-3.384,3.101L76.759,35.529l-15.551,15.55L46.652,36.524
		c-0.339-0.339-0.603-0.533-0.921-0.835c-1.75-1.652-3.271-2.868-4.436-3.398c-0.847-0.44-1.741-0.66-2.681-0.66
		c-2.533-0.001-5.4,1.597-8.6,4.797c-3.735,3.736-5.284,6.821-4.834,9.309c0.033,0.181-0.013,0.387,0.043,0.561
		c0.44,1.441,0.952,2.551,1.557,3.338c0.592,0.784,1.64,1.924,3.147,3.43l22.923,22.923c2.187,2.188,3.973,3.659,5.357,4.416
		c0.766,0.368,1.581,0.508,2.426,0.508c0.146,0,0.293-0.004,0.441-0.012c0.182,0.009,0.364,0.017,0.543,0.017
		c0.381,0,0.751-0.032,1.098-0.142c1.442-0.439,2.551-0.952,3.339-1.556c0.782-0.592,1.921-1.639,3.425-3.142
		c0.001-0.001,0.001-0.001,0.001-0.001c0.001-0.001,0,0,0.001-0.001c0.001-0.001,0.002-0.002,0.003-0.003l30.336-30.336
		l13.708-13.708c2.188-2.188,3.66-3.973,4.417-5.357c1.503-3.132,0.058-6.887-4.329-11.273
		C110.282,12.064,107.448,10.395,105.11,10.395z"/>
</g>
</svg>
